<?xml version="1.0" encoding="UTF-8" standalone="no"?>
<!-- Created with Inkscape (http://www.inkscape.org/) -->

<svg
   version="1.1"
   id="svg9"
   width="227"
   height="34"
   viewBox="0 0 227 34"
   sodipodi:docname="logoraw.svg"
   xml:space="preserve"
   inkscape:version="1.2 (dc2aedaf03, 2022-05-15)"
   xmlns:inkscape="http://www.inkscape.org/namespaces/inkscape"
   xmlns:sodipodi="http://sodipodi.sourceforge.net/DTD/sodipodi-0.dtd"
   xmlns="http://www.w3.org/2000/svg"
   xmlns:svg="http://www.w3.org/2000/svg"><defs
     id="defs13" /><sodipodi:namedview
     id="namedview11"
     pagecolor="#ffffff"
     bordercolor="#000000"
     borderopacity="0.25"
     inkscape:showpageshadow="2"
     inkscape:pageopacity="0.0"
     inkscape:pagecheckerboard="0"
     inkscape:deskcolor="#d1d1d1"
     showgrid="false"
     inkscape:zoom="3.9207048"
     inkscape:cx="97.558989"
     inkscape:cy="-21.297191"
     inkscape:window-width="1920"
     inkscape:window-height="991"
     inkscape:window-x="-9"
     inkscape:window-y="-9"
     inkscape:window-maximized="1"
     inkscape:current-layer="g15" /><g
     inkscape:groupmode="layer"
     inkscape:label="Image"
     id="g15"><g
       id="g1546"
       inkscape:export-filename="g1546.png"
       inkscape:export-xdpi="461.38647"
       inkscape:export-ydpi="461.38647"><text
         xml:space="preserve"
         style="font-size:21.8823px;fill:#f9f9f9;stroke-width:1.82352"
         x="85.281349"
         y="23.037663"
         id="text1359"><tspan
           sodipodi:role="line"
           id="tspan1357"
           x="85.281349"
           y="23.037663"
           style="stroke-width:1.82352">NGE<tspan
   style="font-style:italic;font-variant:normal;font-weight:normal;font-stretch:normal;font-family:sans-serif;-inkscape-font-specification:'sans-serif Italic';fill:#00ffff;stroke-width:1.82352"
   id="tspan1411">FLY</tspan></tspan></text><path
         style="fill:#00ffff;stroke-width:0.0776723"
         d="m 71.526016,23.883232 0.04993,-0.598477 0.120273,-1.13553 0.120272,-1.135529 0.08255,-0.681318 0.08255,-0.681317 0.116125,-1.097679 0.116119,-1.097678 0.08387,-0.79487 0.08387,-0.794871 0.04306,-0.132478 0.04306,-0.132479 h -0.08073 -0.08074 l -0.940733,0.407483 -0.940734,0.407481 -0.836788,0.268569 -0.836789,0.268567 -0.677397,0.191093 -0.677398,0.191092 -0.79694,0.158665 -0.796939,0.158665 -0.518007,0.0694 -0.518015,0.0694 -0.580341,0.0025 -0.580335,0.0025 -0.264048,-0.1048 -0.264048,-0.104799 -0.470564,-0.404633 -0.470564,-0.404633 -0.601484,-0.56932 -0.60149,-0.569321 -0.685324,-0.719169 -0.685329,-0.719168 -0.207445,-0.238034 -0.207445,-0.238034 6.37e-4,-0.06478 6.36e-4,-0.06478 0.485835,-0.20818 0.485842,-0.208181 h 0.09651 0.0965 l 0.831566,0.254991 0.83156,0.25499 1.395103,0.426328 1.395097,0.426327 h 0.126601 0.126595 l 1.666059,-0.764126 1.666059,-0.764126 0.796939,-0.363696 0.796939,-0.363695 1.992351,-0.907013 1.992345,-0.907013 2.032194,-0.9270912 2.032201,-0.9270909 1.036021,-0.4724777 1.036015,-0.4724778 0.438322,-0.1023936 0.438315,-0.1023937 0.876632,0.00211 0.876631,0.00211 0.438322,0.1005237 0.438316,0.100523 0.278925,0.1337595 0.278932,0.1337594 0.194507,0.1979435 0.194513,0.1979441 -0.0057,0.3695869 -0.0057,0.3695862 -0.225102,0.3928762 -0.225108,0.3928763 -0.424977,0.3689501 -0.424977,0.36895 -0.973052,0.449398 -0.973045,0.449398 -1.474337,0.671483 -1.474338,0.671483 -0.267476,0.115074 -0.267476,0.115075 -0.263062,0.716165 -0.263062,0.716164 -0.517969,1.400487 -0.51797,1.400486 -0.49439,1.324784 -0.494391,1.324784 -0.105338,0.302808 -0.105331,0.302808 -0.411424,1.097678 -0.411416,1.097679 -0.0694,0.217468 -0.0694,0.217469 -0.117386,0.170172 -0.117378,0.170174 -0.941325,0.431727 -0.941319,0.431729 -0.231398,0.04406 -0.231399,0.04406 0.04993,-0.598479 z M 68.392509,11.590387 68.193269,11.448978 67.356488,10.940545 66.519699,10.432112 65.54,9.8252709 l -0.979704,-0.606843 0.02443,-0.1206122 0.02443,-0.1206139 0.995098,-0.4676354 0.995091,-0.4676357 0.247797,-0.00556 0.247789,-0.00556 1.027309,0.3460943 1.027313,0.3460946 0.318775,0.099767 0.318774,0.099767 1.394124,0.4658521 1.394123,0.4658513 0.05858,0.055673 0.05865,0.055673 -1.937784,0.887305 -1.937777,0.887305 -0.112665,-0.0043 -0.11266,-0.0043 -0.199233,-0.141407 z"
         id="path1437" /></g></g></svg>
